<?xml version="1.0" encoding="UTF-8" standalone="no"?>
<!-- Generator: Gravit.io -->
<svg xmlns="http://www.w3.org/2000/svg" xmlns:xlink="http://www.w3.org/1999/xlink" style="isolation:isolate" viewBox="0 0 60 60" width="60pt" height="60pt"><defs><clipPath id="_clipPath_rSOBZoHi8Pn7k0YSc5kTWtrSfKtS7vjQ"><rect width="60" height="60"/></clipPath></defs><g clip-path="url(#_clipPath_rSOBZoHi8Pn7k0YSc5kTWtrSfKtS7vjQ)"><path d=" M 40.472 25.894 C 41.975 28.66 42.836 31.852 42.836 35.255 C 42.836 45.802 34.599 54.351 24.438 54.351 C 21.343 54.351 18.426 53.557 15.866 52.156 C 10.023 48.957 6.04 42.589 6.04 35.255 C 6.04 24.709 14.277 16.161 24.438 16.161 C 28.339 16.161 31.954 17.425 34.931 19.575 L 39.036 15.699 C 35.001 12.451 29.94 10.513 24.438 10.513 C 11.271 10.513 0.597 21.59 0.597 35.255 C 0.597 48.922 11.271 60 24.438 60 C 37.605 60 48.279 48.922 48.279 35.255 C 48.279 30.384 46.917 25.847 44.576 22.018 L 40.472 25.894 Z " fill="rgb(119,120,123)"/><path d=" M 24.438 27.626 C 25.035 27.626 25.612 27.708 26.168 27.848 L 30.96 23.323 C 29.035 22.188 26.811 21.536 24.438 21.536 C 17.137 21.536 11.219 27.678 11.219 35.255 C 11.219 42.834 17.137 48.976 24.438 48.976 C 31.739 48.976 37.657 42.834 37.657 35.255 C 37.657 33.255 37.241 31.356 36.5 29.643 L 31.706 34.168 C 31.756 34.524 31.79 34.885 31.79 35.255 C 31.79 39.469 28.498 42.885 24.438 42.885 C 20.378 42.885 17.086 39.469 17.086 35.255 C 17.086 31.042 20.378 27.626 24.438 27.626 Z " fill="rgb(0,167,226)"/><path d=" M 52.676 10.315 C 52.683 9.858 52.533 9.397 52.213 9.033 C 51.863 8.633 51.384 8.433 50.901 8.428 L 50.925 6.021 L 50.985 0 L 44.357 6.514 L 44.357 10.676 L 44.357 13.928 L 40.809 17.277 L 36.772 21.088 L 32.915 24.73 L 28.5 28.898 L 23.229 33.875 C 22.494 34.568 22.44 35.749 23.109 36.511 C 23.463 36.916 23.95 37.122 24.439 37.122 C 24.871 37.122 25.304 36.961 25.648 36.636 L 30.92 31.658 L 35.335 27.491 L 39.193 23.848 L 43.229 20.038 L 46.732 16.731 L 50.176 16.731 L 54.202 16.731 L 60.524 10.429 L 54.994 10.349 L 52.676 10.315 Z " fill="rgb(119,120,123)"/></g></svg>