<?xml version="1.0" encoding="UTF-8" standalone="no"?>
<!-- Generator: Gravit.io -->
<svg xmlns="http://www.w3.org/2000/svg" xmlns:xlink="http://www.w3.org/1999/xlink" style="isolation:isolate" viewBox="0 0 90 60" width="90pt" height="60pt"><defs><clipPath id="_clipPath_ZzgXoBl7gmptlUXxCG0e2JaMMrhLOjWS"><rect width="90" height="60"/></clipPath></defs><g clip-path="url(#_clipPath_ZzgXoBl7gmptlUXxCG0e2JaMMrhLOjWS)"><g><path d=" M 51.943 43.886 C 49.548 39.628 57.424 37.471 59.985 38.006 C 62.148 38.458 65.484 39.761 65.733 42.333 C 65.944 44.488 63.905 46.193 63.523 48.188 C 62.699 52.488 77.586 48.352 77.586 48.352 C 77.586 48.352 75.765 39.252 76.923 36.441 C 78.081 33.628 80.067 32.469 82.549 34.786 C 85.03 37.102 89 34.454 89 29.989 C 89 25.522 85.03 22.874 82.549 25.19 C 80.067 27.506 78.081 26.348 76.923 23.536 C 75.766 20.724 77.586 11.625 77.586 11.625 C 77.586 11.625 62.7 7.489 63.523 11.789 C 63.874 13.616 65.661 14.767 66.02 16.526 C 66.455 18.655 64.306 20.439 62.53 21.23 C 60.692 22.047 58.276 22.422 56.299 21.942 C 54.247 21.445 50.499 18.655 51.943 16.091 C 53.431 13.444 58.064 9.475 50.122 10.135 C 42.182 10.797 39.865 11.295 39.865 11.295 C 39.865 11.295 43.175 25.686 38.377 26.844 C 38.377 26.844 36.39 27.505 35.067 25.521 C 34.246 24.287 32.709 23.923 31.482 24.764 C 28.746 26.64 28.382 30.746 29.953 33.384 C 31.1 35.311 33.472 36.849 35.067 34.456 C 36.39 32.471 38.377 33.132 38.377 33.132 C 43.175 34.289 39.865 48.683 39.865 48.683 C 39.865 48.683 42.181 49.179 50.122 49.841 C 58.063 50.502 53.431 46.532 51.943 43.886 Z " fill="rgb(119,120,123)"/><path d=" M 1.789 11.414 L 1.789 11.414 L 1.789 11.414 Z  M 20.154 0 C 17.914 0 15.541 1.349 14.808 3.593 C 14.497 4.542 14.52 5.576 14.652 6.557 C 14.865 8.154 15.67 10.55 14.186 11.814 C 13.524 12.378 12.428 12.504 11.384 12.504 C 10.738 12.504 10.113 12.456 9.621 12.433 C 9.08 12.408 1.768 11.492 1.789 11.414 C 1.787 11.424 -2.124 25.511 1.626 25.511 C 1.73 25.511 1.839 25.5 1.954 25.478 C 3.781 25.126 4.934 23.34 6.69 22.982 C 6.879 22.943 7.066 22.925 7.249 22.925 C 9.13 22.925 10.676 24.853 11.396 26.471 C 12.212 28.308 12.587 30.724 12.107 32.701 C 11.687 34.436 9.63 37.38 7.455 37.38 C 7.056 37.38 6.654 37.281 6.257 37.058 C 4.756 36.213 2.829 34.359 1.564 34.359 C 0.597 34.359 0.015 35.44 0.302 38.878 C 0.963 46.819 1.46 49.135 1.46 49.135 C 3.714 48.616 6.035 48.279 8.339 48.111 C 9.445 48.03 10.695 47.909 11.877 47.909 C 12.355 47.909 12.821 47.929 13.263 47.978 C 14.918 48.166 15.731 50.362 15.35 51.792 C 14.648 54.428 13.472 56.797 16.152 58.777 C 17.251 59.59 18.637 59.986 20.023 59.986 C 21.265 59.986 22.509 59.668 23.551 59.047 C 25.96 57.612 25.049 55.055 24.608 52.811 C 24.35 51.506 24.249 49.352 25.581 48.563 C 26.671 47.918 28.307 47.823 29.757 47.823 C 30.287 47.823 30.791 47.836 31.235 47.839 C 34.115 47.86 37.032 48.157 39.865 48.683 L 47.269 26.989 L 44.405 10.711 L 40.143 11.295 C 37.573 11.76 34.969 12.115 32.365 12.32 C 31.458 12.391 30.33 12.559 29.265 12.559 C 28.609 12.559 27.978 12.495 27.437 12.307 C 25.737 11.713 25.297 9.866 25.534 8.269 C 25.7 7.14 25.844 5.963 25.749 4.785 C 25.505 1.732 23.109 0 20.154 0 L 20.154 0 Z  M 20.154 2.618 C 20.994 2.618 22.968 2.849 23.14 4.995 C 23.216 5.932 23.079 6.979 22.945 7.884 C 22.47 11.084 23.928 13.855 26.575 14.778 C 27.342 15.046 28.222 15.177 29.265 15.177 C 30.131 15.177 30.98 15.088 31.728 15.01 C 32.023 14.98 32.307 14.951 32.572 14.93 C 35.128 14.728 37.813 14.374 40.554 13.88 L 42.263 13.647 L 44.574 26.78 L 38.103 45.741 C 35.795 45.412 33.5 45.238 31.254 45.221 C 31.082 45.22 30.902 45.217 30.715 45.214 C 30.41 45.21 30.088 45.206 29.757 45.206 C 27.956 45.206 25.892 45.337 24.247 46.312 C 22.204 47.521 21.399 50.075 22.039 53.317 C 22.093 53.592 22.154 53.871 22.215 54.154 C 22.703 56.399 22.566 56.587 22.211 56.799 C 21.595 57.166 20.818 57.369 20.023 57.369 C 19.137 57.369 18.315 57.121 17.707 56.672 C 16.992 56.144 16.843 56.034 17.576 53.532 C 17.68 53.182 17.784 52.826 17.879 52.466 C 18.31 50.851 17.968 48.956 16.987 47.519 C 16.151 46.294 14.933 45.534 13.556 45.378 C 13.043 45.32 12.494 45.291 11.877 45.291 C 10.826 45.291 9.751 45.376 8.804 45.45 C 8.581 45.467 8.362 45.484 8.148 45.5 C 6.625 45.612 5.12 45.791 3.647 46.036 C 3.454 44.48 3.198 42.112 2.91 38.661 C 2.887 38.386 2.872 38.139 2.862 37.918 C 2.946 37.979 3.026 38.037 3.099 38.09 C 3.708 38.528 4.338 38.982 4.974 39.34 C 5.751 39.777 6.586 39.998 7.455 39.998 C 9.735 39.998 13.611 37.618 14.651 33.32 C 15.238 30.904 14.916 27.947 13.787 25.406 C 12.69 22.941 10.396 20.307 7.249 20.307 C 6.887 20.307 6.523 20.344 6.167 20.417 C 4.745 20.708 3.69 21.475 2.843 22.091 C 2.762 22.15 2.682 22.208 2.603 22.265 C 2.582 20.522 3.014 17.492 3.743 14.357 C 4.172 14.413 4.653 14.475 5.196 14.544 C 5.821 14.624 8.965 15.023 9.501 15.048 C 9.624 15.054 9.757 15.061 9.896 15.069 C 10.316 15.092 10.839 15.122 11.384 15.122 C 12.652 15.122 14.499 14.985 15.883 13.808 C 18.255 11.789 17.707 8.789 17.379 6.997 C 17.326 6.706 17.275 6.431 17.247 6.209 C 17.14 5.422 17.157 4.832 17.296 4.407 C 17.662 3.287 19.036 2.618 20.154 2.618 Z " fill="rgb(119,120,123)"/></g></g></svg>