<?xml version="1.0" encoding="UTF-8" standalone="no"?>
<!-- Generator: Gravit.io -->
<svg xmlns="http://www.w3.org/2000/svg" xmlns:xlink="http://www.w3.org/1999/xlink" style="isolation:isolate" viewBox="0 0 108 60" width="108pt" height="60pt"><defs><clipPath id="_clipPath_LuH9aSHf0n3lK0e9VLrzZ8TY4TmY9F2H"><rect width="108" height="60"/></clipPath></defs><g clip-path="url(#_clipPath_LuH9aSHf0n3lK0e9VLrzZ8TY4TmY9F2H)"><g><path d=" M 92.653 42.875 L 91.062 38.271 C 90.894 37.493 90.699 36.559 90.489 35.513 C 90.7 35.244 90.821 35.086 90.821 35.086 L 87.525 15.108 C 87.365 12.533 87.379 10.303 87.663 8.76 L 99.979 6.983 L 104.71 42.695 L 92.653 42.875 Z  M 81.073 42.489 C 76.26 41.345 70.543 37.678 65.783 32.683 C 65.049 31.913 63.834 31.885 63.065 32.617 C 62.295 33.35 62.266 34.567 63 35.336 C 65.269 37.718 70.948 43.099 77.848 45.528 C 76.586 47.15 75.151 48.02 73.465 48.166 C 69.059 48.547 64.418 44.072 64.373 44.03 C 64.326 43.984 64.276 43.94 64.225 43.898 L 57.632 38.651 C 56.801 37.989 55.59 38.127 54.93 38.959 C 54.269 39.79 54.407 40.999 55.238 41.66 L 61.76 46.851 C 62.309 47.372 65.399 50.178 69.325 51.427 C 69.181 51.537 69.046 51.661 68.932 51.815 C 68.148 52.892 67.185 53.489 65.992 53.643 C 62.91 54.044 58.939 51.449 57.651 50.402 L 51.057 45.154 C 50.226 44.491 49.016 44.629 48.355 45.461 C 47.695 46.291 47.832 47.502 48.662 48.163 L 55.235 53.393 C 55.337 53.477 56.447 54.37 58.097 55.304 C 55.535 57.32 50.301 55.078 49.521 54.724 L 22.711 36.593 L 22.763 36.41 C 22.772 36.374 22.781 36.339 22.79 36.303 C 23.75 32.246 26.422 10.744 26.889 6.962 L 39.041 6.454 C 29.63 16.916 35.709 35.081 48.387 16.842 L 54.491 15.669 C 54.491 15.669 72.198 26.729 79.353 31.79 C 81.79 33.514 84.639 35.823 85.583 38.844 C 85.331 39.39 84.898 40.055 84.233 40.742 C 82.889 42.127 81.553 42.604 81.073 42.489 Z  M 107.987 44.005 L 102.824 5.037 C 102.77 4.629 102.555 4.261 102.227 4.012 C 101.899 3.764 101.485 3.656 101.079 3.716 L 86.204 5.863 C 85.625 5.945 85.143 6.349 84.961 6.905 C 84.884 7.141 84.817 7.399 84.755 7.671 C 78.298 5.295 54.463 -2.757 42.996 3.287 C 42.869 3.252 42.738 3.228 42.601 3.228 C 42.58 3.228 42.557 3.229 42.535 3.229 L 41.226 3.285 C 41.065 3.237 40.896 3.208 40.72 3.217 L 25.961 3.907 C 25.582 3.586 25.118 3.356 24.594 3.27 L 8.461 0.641 C 7.703 0.518 6.927 0.706 6.31 1.164 C 5.693 1.622 5.289 2.31 5.187 3.071 L 0.025 42.039 C -0.085 42.863 0.172 43.694 0.728 44.311 C 1.268 44.911 2.036 45.253 2.841 45.253 C 2.865 45.253 2.889 45.253 2.913 45.251 L 18.327 44.86 C 19.576 44.828 20.657 43.984 20.992 42.78 L 21.625 40.5 L 47.492 57.993 C 47.563 58.041 47.637 58.084 47.713 58.123 C 47.813 58.171 50.164 59.329 52.982 59.798 C 53.817 59.937 54.586 60 55.292 60 C 58.755 60 60.712 58.479 61.817 56.945 C 62.945 57.296 64.141 57.528 65.347 57.528 C 65.721 57.528 66.097 57.506 66.471 57.458 C 68.742 57.169 70.615 56.033 72.039 54.083 C 72.501 53.45 72.517 52.631 72.151 51.993 C 72.415 52.014 72.681 52.033 72.948 52.033 C 73.224 52.033 73.501 52.021 73.778 51.998 C 76.711 51.751 79.207 50.234 81.192 47.491 C 81.446 47.139 81.559 46.731 81.552 46.328 C 83.318 46.218 85.267 45.199 86.994 43.419 C 87.735 42.654 88.324 41.853 88.767 41.05 L 90.11 44.933 C 90.325 45.554 90.909 45.968 91.564 45.968 C 91.571 45.968 91.579 45.968 91.587 45.968 L 106.485 45.744 C 106.924 45.738 107.339 45.544 107.627 45.211 C 107.912 44.879 108.044 44.439 107.987 44.005 Z " fill="rgb(119,120,123)"/><path d=" M 83.638 11.247 C 83.638 11.247 53.077 -1.03 44.457 6.284 C 35.837 13.598 35.837 21.696 40.015 20.128 C 44.196 18.561 46.024 15.427 46.024 15.427 L 55.689 12.553 C 55.689 12.553 81.808 28.748 84.682 31.882 C 87.556 35.017 87.556 37.106 87.556 37.106 C 87.556 37.106 85.988 23.263 85.466 20.912 C 84.943 18.561 83.638 11.247 83.638 11.247 Z " fill="rgb(0,167,226)"/></g></g></svg>