<?xml version="1.0" encoding="UTF-8" standalone="no"?>
<!-- Generator: Gravit.io -->
<svg xmlns="http://www.w3.org/2000/svg" xmlns:xlink="http://www.w3.org/1999/xlink" style="isolation:isolate" viewBox="0 0 98 120" width="98pt" height="120pt"><defs><clipPath id="_clipPath_iXWOkZosvJtIstI6O9O8DQ0BcPpP7ZNT"><rect width="98" height="120"/></clipPath></defs><g clip-path="url(#_clipPath_iXWOkZosvJtIstI6O9O8DQ0BcPpP7ZNT)"><g style="isolation:isolate"/><g><path d=" M 54.11 1.979 C 33.802 1.979 17.28 18.498 17.28 38.809 C 17.28 59.115 33.802 75.637 54.11 75.637 C 74.413 75.637 90.936 59.115 90.936 38.809 C 90.936 18.498 74.413 1.979 54.11 1.979 Z " fill="rgb(115,193,235)"/><path d=" M 54.11 1.979 C 33.802 1.979 17.28 18.498 17.28 38.809 C 17.28 59.115 33.802 75.637 54.11 75.637 C 74.413 75.637 90.936 59.115 90.936 38.809 C 90.936 18.498 74.413 1.979 54.11 1.979 Z " fill="none" vector-effect="non-scaling-stroke" stroke-width="4" stroke="rgb(119,120,123)" stroke-linejoin="bevel" stroke-linecap="round" stroke-miterlimit="10"/><path d=" M 37.688 64.133 C 36.442 62.293 35.522 60.293 34.854 58.182 C 34.653 57.547 34.757 56.815 34.725 56.128 C 34.364 54.625 33.792 53.162 33.889 51.578 C 33.71 50.478 33.614 49.352 33.327 48.279 C 32.921 46.772 32.229 45.44 30.6 44.836 C 29.438 44.406 29.178 43.192 28.577 42.285 C 27.839 40.87 27.362 39.342 26.798 37.895 C 25.825 35.38 26.983 33.856 27.968 32.014 C 28.864 30.344 28.497 29.703 26.6 29.406 C 25.27 29.197 25.163 28.18 25.071 27.143 C 24.667 26.91 24.22 26.729 23.77 26.549 C 22.356 25.982 20.93 25.426 20.862 23.359 C 23.063 17.825 26.802 13.478 31.409 9.832 C 35.553 6.553 40.245 4.395 45.38 3.162 C 46.128 2.986 46.86 3.01 47.606 3.022 C 47.772 3.65 47.157 3.543 46.942 3.784 C 46.475 4.317 44.8 4.031 45.641 5.52 C 46.241 5.897 46.846 6.452 46.852 7.062 C 46.852 7.207 46.827 7.353 46.751 7.502 C 46.331 8.332 45.444 8.147 44.745 7.574 C 44.712 7.546 44.678 7.524 44.643 7.494 C 43.927 7.574 43.114 7.406 42.823 8.172 C 42.751 8.353 42.702 8.574 42.702 8.883 C 42.702 9.381 41.555 9.631 40.839 9.748 C 38.409 10.147 36.542 11.522 34.827 13.164 C 34.606 13.375 34.524 13.789 34.28 13.908 C 32.579 14.741 31.317 16.025 30.294 17.581 C 30.214 17.702 30.063 17.805 29.927 17.609 C 29.706 17.539 29.485 17.475 29.264 17.402 C 29.259 17.402 29.255 17.398 29.249 17.398 C 27.266 17.461 26.21 19.055 24.802 20.072 L 24.8 20.072 C 24.766 21.122 23.68 21.836 23.882 22.957 C 23.708 23.166 23.54 23.469 23.264 23.442 C 23.54 23.469 23.708 23.166 23.884 22.957 C 24.401 22.748 24.776 22.336 25.009 21.881 C 25.417 21.092 25.905 21.324 26.198 21.611 C 26.36 21.77 26.462 21.941 26.454 21.967 C 25.987 23.402 26.204 24.716 26.671 26.114 C 26.751 26.35 26.634 27.382 26.358 27.989 C 27.384 28.412 28.655 28.164 29.276 27.473 C 29.546 27.168 29.917 26.952 30.245 26.697 C 31.178 26.035 32.442 25.677 33.305 26.051 C 34.221 26.445 34.964 26.596 35.866 26.365 C 36.886 26.104 37.366 26.456 37.374 27.555 C 37.386 28.481 37.643 29.387 38.442 29.964 C 39.901 31.011 41.47 31.8 43.333 31.194 C 44.175 30.923 44.925 31.23 44.973 31.935 C 45.061 33.261 45.866 33.321 46.809 33.442 C 47.372 33.517 47.899 33.614 48.399 34.061 C 49.071 34.67 49.977 34.931 50.932 34.813 C 52.093 35.298 53.302 35.706 54.409 36.297 C 55.229 36.736 55.397 37.728 55.764 38.527 C 55.764 39.756 55.071 40.623 54.208 41.361 C 53.261 42.178 52.983 43.154 52.807 44.406 C 52.485 46.662 52.026 49.01 49.198 49.729 C 47.595 50.136 46.686 51.266 46.733 53.011 C 46.216 54.714 45.243 56.092 43.735 57.037 C 43.358 57.279 43.194 57.584 43.182 57.934 C 43.159 58.621 42.909 58.9 42.202 59.106 C 41.216 59.387 41.567 60.721 40.798 61.309 C 39.782 62.088 40.848 62.75 40.923 63.477 C 41.059 64.846 41.544 65.868 42.571 66.701 C 42.819 66.903 42.675 67.057 42.512 67.209 C 42.397 67.32 42.268 67.373 42.136 67.4 C 41.905 67.453 41.665 67.415 41.45 67.353 C 40.7 67.131 40.079 66.757 39.536 66.297 C 38.821 65.692 38.235 64.936 37.688 64.133 Z " fill="rgb(119,120,123)"/><path d=" M 37.688 64.133 C 36.442 62.293 35.522 60.293 34.854 58.182 C 34.653 57.547 34.757 56.815 34.725 56.128 C 34.364 54.625 33.792 53.162 33.889 51.578 C 33.71 50.478 33.614 49.352 33.327 48.279 C 32.921 46.772 32.229 45.44 30.6 44.836 C 29.438 44.406 29.178 43.192 28.577 42.285 C 27.839 40.87 27.362 39.342 26.798 37.895 C 25.825 35.38 26.983 33.856 27.968 32.014 C 28.864 30.344 28.497 29.703 26.6 29.406 C 25.27 29.197 25.163 28.18 25.071 27.143 C 24.667 26.91 24.22 26.729 23.77 26.549 C 22.356 25.982 20.93 25.426 20.862 23.359 C 23.063 17.825 26.802 13.478 31.409 9.832 C 35.553 6.553 40.245 4.395 45.38 3.162 C 46.128 2.986 46.86 3.01 47.606 3.022 C 47.772 3.65 47.157 3.543 46.942 3.784 C 46.475 4.317 44.8 4.031 45.641 5.52 C 46.241 5.897 46.846 6.452 46.852 7.062 C 46.852 7.207 46.827 7.353 46.751 7.502 C 46.331 8.332 45.444 8.147 44.745 7.574 C 44.712 7.546 44.678 7.524 44.643 7.494 C 43.927 7.574 43.114 7.406 42.823 8.172 C 42.751 8.353 42.702 8.574 42.702 8.883 C 42.702 9.381 41.555 9.631 40.839 9.748 C 38.409 10.147 36.542 11.522 34.827 13.164 C 34.606 13.375 34.524 13.789 34.28 13.908 C 32.579 14.741 31.317 16.025 30.294 17.581 C 30.214 17.702 30.063 17.805 29.927 17.609 C 29.706 17.539 29.485 17.475 29.264 17.402 C 29.259 17.402 29.255 17.398 29.249 17.398 C 27.266 17.461 26.21 19.055 24.802 20.072 L 24.8 20.072 C 24.766 21.122 23.68 21.836 23.882 22.957 C 23.708 23.166 23.54 23.469 23.264 23.442 C 23.54 23.469 23.708 23.166 23.884 22.957 C 24.401 22.748 24.776 22.336 25.009 21.881 C 25.417 21.092 25.905 21.324 26.198 21.611 C 26.36 21.77 26.462 21.941 26.454 21.967 C 25.987 23.402 26.204 24.716 26.671 26.114 C 26.751 26.35 26.634 27.382 26.358 27.989 C 27.384 28.412 28.655 28.164 29.276 27.473 C 29.546 27.168 29.917 26.952 30.245 26.697 C 31.178 26.035 32.442 25.677 33.305 26.051 C 34.221 26.445 34.964 26.596 35.866 26.365 C 36.886 26.104 37.366 26.456 37.374 27.555 C 37.386 28.481 37.643 29.387 38.442 29.964 C 39.901 31.011 41.47 31.8 43.333 31.194 C 44.175 30.923 44.925 31.23 44.973 31.935 C 45.061 33.261 45.866 33.321 46.809 33.442 C 47.372 33.517 47.899 33.614 48.399 34.061 C 49.071 34.67 49.977 34.931 50.932 34.813 C 52.093 35.298 53.302 35.706 54.409 36.297 C 55.229 36.736 55.397 37.728 55.764 38.527 C 55.764 39.756 55.071 40.623 54.208 41.361 C 53.261 42.178 52.983 43.154 52.807 44.406 C 52.485 46.662 52.026 49.01 49.198 49.729 C 47.595 50.136 46.686 51.266 46.733 53.011 C 46.216 54.714 45.243 56.092 43.735 57.037 C 43.358 57.279 43.194 57.584 43.182 57.934 C 43.159 58.621 42.909 58.9 42.202 59.106 C 41.216 59.387 41.567 60.721 40.798 61.309 C 39.782 62.088 40.848 62.75 40.923 63.477 C 41.059 64.846 41.544 65.868 42.571 66.701 C 42.819 66.903 42.675 67.057 42.512 67.209 C 42.397 67.32 42.268 67.373 42.136 67.4 C 41.905 67.453 41.665 67.415 41.45 67.353 C 40.7 67.131 40.079 66.757 39.536 66.297 C 38.821 65.692 38.235 64.936 37.688 64.133 Z " fill="none" vector-effect="non-scaling-stroke" stroke-width="3" stroke="rgb(119,120,123)" stroke-linejoin="bevel" stroke-linecap="round" stroke-miterlimit="10"/><path d=" M 34.192 22.402 C 33.815 22.706 33.374 23.58 32.682 22.688 C 32.356 22.267 31.997 21.867 31.368 22.071 C 29.93 22.104 28.915 21.188 27.581 20.457 C 28.983 19.684 30.098 19.838 31.132 20.752 C 31.522 21.097 31.819 21.65 32.419 21.072 C 32.878 21.115 33.427 20.789 33.772 21.199 C 34.042 21.516 34.927 21.803 34.192 22.402 Z " fill="rgb(119,120,123)"/><path d=" M 34.192 22.402 C 33.815 22.706 33.374 23.58 32.682 22.688 C 32.356 22.267 31.997 21.867 31.368 22.071 C 29.93 22.104 28.915 21.188 27.581 20.457 C 28.983 19.684 30.098 19.838 31.132 20.752 C 31.522 21.097 31.819 21.65 32.419 21.072 C 32.878 21.115 33.427 20.789 33.772 21.199 C 34.042 21.516 34.927 21.803 34.192 22.402 Z " fill="none" vector-effect="non-scaling-stroke" stroke-width="3" stroke="rgb(119,120,123)" stroke-linejoin="bevel" stroke-linecap="round" stroke-miterlimit="10"/><path d=" M 57.714 74.943 C 57.247 75.026 56.764 74.989 56.29 75.008 C 53.294 75.643 50.362 74.976 47.44 74.484 C 45.989 74.24 44.483 74.026 43.298 72.973 C 42.846 72.572 42.261 72.898 41.749 72.784 C 41.759 72.361 41.436 71.772 42.36 71.926 C 43.225 72.066 43.964 72.461 44.747 72.793 C 45.626 73.163 46.563 73.463 46.634 71.904 C 46.653 71.43 47.157 70.765 47.487 71.484 C 48.384 73.44 50.352 73.008 51.796 73.705 C 51.985 73.796 52.198 73.842 52.399 73.908 C 54.774 74.498 56.71 72.898 58.903 72.609 C 60.69 72.377 62.471 72.286 64.05 73.424 C 62.112 74.656 59.852 74.559 57.714 74.943 Z " fill="rgb(119,120,123)"/><path d=" M 57.714 74.943 C 57.247 75.026 56.764 74.989 56.29 75.008 C 53.294 75.643 50.362 74.976 47.44 74.484 C 45.989 74.24 44.483 74.026 43.298 72.973 C 42.846 72.572 42.261 72.898 41.749 72.784 C 41.759 72.361 41.436 71.772 42.36 71.926 C 43.225 72.066 43.964 72.461 44.747 72.793 C 45.626 73.163 46.563 73.463 46.634 71.904 C 46.653 71.43 47.157 70.765 47.487 71.484 C 48.384 73.44 50.352 73.008 51.796 73.705 C 51.985 73.796 52.198 73.842 52.399 73.908 C 54.774 74.498 56.71 72.898 58.903 72.609 C 60.69 72.377 62.471 72.286 64.05 73.424 C 62.112 74.656 59.852 74.559 57.714 74.943 Z " fill="none" vector-effect="non-scaling-stroke" stroke-width="3" stroke="rgb(119,120,123)" stroke-linejoin="bevel" stroke-linecap="round" stroke-miterlimit="10"/><path d=" M 68.13 9.676 C 68.157 9.581 68.202 9.495 68.255 9.414 C 68.639 8.837 69.55 8.467 68.96 7.524 C 68.22 8.029 67.444 8.107 66.829 7.381 C 66.512 7.006 66.245 7.025 65.868 7.107 C 64.663 7.359 64.6 6.778 64.96 5.861 C 65.108 5.473 65.186 5.055 65.298 4.647 C 63.553 4.677 61.942 3.677 60.139 3.966 C 59.971 3.993 59.667 3.147 59.425 2.702 C 61.343 2.7 63.126 3.486 65.016 3.684 C 65.561 3.742 65.356 4.231 65.423 4.559 C 66.79 4.172 67.995 4.696 69.186 5.254 C 73.507 7.274 77.44 9.849 80.784 13.282 C 81.415 13.927 81.882 14.57 81.727 15.516 C 81.491 15.555 81.325 15.469 81.218 15.256 C 80.137 15.183 79.427 14.487 78.72 13.782 L 78.72 13.785 C 78.456 13.815 77.995 13.338 78.003 14.045 C 78.009 14.326 77.503 14.797 78.227 14.859 C 79.122 14.937 79.757 15.502 80.46 15.953 C 81.048 16.33 81.555 16.217 81.88 15.555 C 84.843 17.402 85.956 20.449 87.341 23.443 C 88.661 26.301 89.665 29.178 90.112 32.272 C 90.634 34.859 90.749 37.467 90.532 40.094 C 90.372 44.097 89.264 47.867 87.669 51.514 C 86.163 52.172 85.997 53.94 84.846 54.906 C 84.159 55.49 83.962 56.596 82.899 56.813 C 81.889 56.84 80.981 57.557 79.708 57.252 C 79.675 57.244 79.641 57.24 79.608 57.233 C 81.487 55.096 80.546 52.236 81.792 49.912 C 82.366 48.842 81.665 47.525 81.854 46.324 C 81.928 45.85 81.55 45.063 82.555 45.134 C 82.573 44.223 82.303 43.201 83.493 42.748 C 83.475 42.473 83.458 42.201 83.438 41.926 C 82.761 41.964 82.641 41.163 82.776 41.055 C 83.833 40.179 83.048 39.109 83.19 38.157 C 82.352 37.681 82.186 36.801 81.911 35.99 C 81.712 35.375 81.95 35.114 82.555 35.145 C 82.548 34.449 82.538 33.758 82.53 33.066 C 81.755 32.179 80.229 32.203 79.866 30.755 C 79.749 30.287 78.977 30.207 78.596 30.469 C 77.313 31.353 75.915 30.872 74.569 30.955 C 72.606 31.426 71.843 29.758 70.694 28.785 C 69.95 26.978 67.784 26.262 67.262 24.285 C 66.673 23.292 68.114 22.644 67.706 21.678 C 67.145 21.306 66.96 20.666 66.604 20.145 C 66.452 19.284 66.438 18.484 67.46 18.119 C 67.497 17.795 67.534 17.469 67.571 17.142 C 67.755 17.116 67.94 17.086 68.124 17.063 C 68.35 16.896 68.579 16.728 68.802 16.56 C 69.216 16.045 69.651 15.578 69.43 14.797 C 69.335 14.452 69.139 13.754 70.001 13.9 C 69.843 13.294 70.3 13.338 70.669 13.287 C 70.221 12.596 68.93 13.297 68.778 12.129 C 67.663 11.344 67.376 10.268 68.128 9.676" fill="rgb(119,120,123)"/><path d=" M 68.13 9.676 C 68.157 9.581 68.202 9.495 68.255 9.414 C 68.639 8.837 69.55 8.467 68.96 7.524 C 68.22 8.029 67.444 8.107 66.829 7.381 C 66.512 7.006 66.245 7.025 65.868 7.107 C 64.663 7.359 64.6 6.778 64.96 5.861 C 65.108 5.473 65.186 5.055 65.298 4.647 C 63.553 4.677 61.942 3.677 60.139 3.966 C 59.971 3.993 59.667 3.147 59.425 2.702 C 61.343 2.7 63.126 3.486 65.016 3.684 C 65.561 3.742 65.356 4.231 65.423 4.559 C 66.79 4.172 67.995 4.696 69.186 5.254 C 73.507 7.274 77.44 9.849 80.784 13.282 C 81.415 13.927 81.882 14.57 81.727 15.516 C 81.491 15.555 81.325 15.469 81.218 15.256 C 80.137 15.183 79.427 14.487 78.72 13.782 L 78.72 13.785 C 78.456 13.815 77.995 13.338 78.003 14.045 C 78.009 14.326 77.503 14.797 78.227 14.859 C 79.122 14.937 79.757 15.502 80.46 15.953 C 81.048 16.33 81.555 16.217 81.88 15.555 C 84.843 17.402 85.956 20.449 87.341 23.443 C 88.661 26.301 89.665 29.178 90.112 32.272 C 90.634 34.859 90.749 37.467 90.532 40.094 C 90.372 44.097 89.264 47.867 87.669 51.514 C 86.163 52.172 85.997 53.94 84.846 54.906 C 84.159 55.49 83.962 56.596 82.899 56.813 C 81.889 56.84 80.981 57.557 79.708 57.252 C 79.675 57.244 79.641 57.24 79.608 57.233 C 81.487 55.096 80.546 52.236 81.792 49.912 C 82.366 48.842 81.665 47.525 81.854 46.324 C 81.928 45.85 81.55 45.063 82.555 45.134 C 82.573 44.223 82.303 43.201 83.493 42.748 C 83.475 42.473 83.458 42.201 83.438 41.926 C 82.761 41.964 82.641 41.163 82.776 41.055 C 83.833 40.179 83.048 39.109 83.19 38.157 C 82.352 37.681 82.186 36.801 81.911 35.99 C 81.712 35.375 81.95 35.114 82.555 35.145 C 82.548 34.449 82.538 33.758 82.53 33.066 C 81.755 32.179 80.229 32.203 79.866 30.755 C 79.749 30.287 78.977 30.207 78.596 30.469 C 77.313 31.353 75.915 30.872 74.569 30.955 C 72.606 31.426 71.843 29.758 70.694 28.785 C 69.95 26.978 67.784 26.262 67.262 24.285 C 66.673 23.292 68.114 22.644 67.706 21.678 C 67.145 21.306 66.96 20.666 66.604 20.145 C 66.452 19.284 66.438 18.484 67.46 18.119 C 67.497 17.795 67.534 17.469 67.571 17.142 C 67.755 17.116 67.94 17.086 68.124 17.063 C 68.35 16.896 68.579 16.728 68.802 16.56 C 69.216 16.045 69.651 15.578 69.43 14.797 C 69.335 14.452 69.139 13.754 70.001 13.9 C 69.843 13.294 70.3 13.338 70.669 13.287 C 70.221 12.596 68.93 13.297 68.778 12.129 C 67.663 11.344 67.376 10.268 68.128 9.676" fill="none" vector-effect="non-scaling-stroke" stroke-width="3" stroke="rgb(119,120,123)" stroke-linejoin="bevel" stroke-linecap="round" stroke-miterlimit="10"/><path d=" M 81.727 50.331 C 81.825 49.281 81.757 48.213 81.706 47.149 C 81.755 48.213 81.825 49.281 81.727 50.331 Z " fill="none" vector-effect="non-scaling-stroke" stroke-width="1" stroke="rgb(119,120,123)" stroke-linejoin="miter" stroke-linecap="butt" stroke-miterlimit="10"/><path d=" M 81.249 97.632 L 91.323 88.509 C 92.139 87.731 92.069 85.596 92.069 85.596 C 92.034 84.856 91.745 84.204 91.069 83.738 C 89.239 82.483 86.38 83.82 84.571 84.473 C 84.555 84.479 84.538 84.486 84.518 84.49 C 81.548 85.575 77.512 89.096 73.358 91.846 L 81.249 97.632 Z " fill="rgb(119,120,123)"/><path d=" M 88.409 93.04 C 87.61 96.471 80.214 101.236 60.178 108.522 C 40.143 115.807 25.052 97.463 36.239 95.902 C 47.428 94.342 67.19 88.301 67.19 88.301 L 70.03 86.59 C 72.419 84.964 75.716 82.408 77.216 81.868 C 79.022 81.22 81.884 79.881 83.714 81.137 C 84.081 81.389 84.331 81.697 84.491 82.043 C 84.491 82.043 85.411 84.716 83.936 86.234 C 81.69 88.545 88.409 93.04 88.409 93.04 Z " fill="rgb(119,120,123)"/><path d=" M 67.315 87.926 L 70.155 86.215 C 72.544 84.589 75.841 82.033 77.341 81.493 C 79.147 80.845 82.009 79.506 83.839 80.762 C 84.206 81.014 84.456 81.322 84.616 81.668 C 84.616 81.668 85.391 83.08 85.227 84.114" fill="none" vector-effect="non-scaling-stroke" stroke-width="2" stroke="rgb(254,254,254)" stroke-linejoin="bevel" stroke-linecap="round" stroke-miterlimit="10"/><path d=" M 91.323 88.509 C 92.139 87.731 92.069 85.596 92.069 85.596 C 92.034 84.856 91.745 84.204 91.069 83.738 C 89.239 82.483 86.38 83.82 84.571 84.473 C 84.555 84.479 84.538 84.486 84.518 84.49 C 81.548 85.575 77.512 89.096 73.358 91.846" fill="none" vector-effect="non-scaling-stroke" stroke-width="2" stroke="rgb(254,254,254)" stroke-linejoin="bevel" stroke-linecap="round" stroke-miterlimit="10"/><path d=" M 95.833 88.502 C 95.38 88.192 94.866 88.041 94.319 87.999 C 93.36 87.922 92.305 88.18 91.323 88.509 C 90.598 88.75 89.913 89.027 89.333 89.234 C 88.704 89.461 87.968 89.829 87.157 90.295 C 83.272 92.51 77.514 97.05 71.874 100.359 C 68.85 102.134 65.538 104.285 62.001 104.754 C 57.96 105.289 53.532 103.593 49.585 102.881 C 48.803 102.74 42.327 101.068 42.001 101.496 C 43.249 99.862 45.163 100.098 47.012 100.269 C 50.612 100.601 53.669 100.482 57.292 100.478 C 61.065 100.475 77.501 97.375 72.735 90.49 C 72.065 89.522 70.778 88.744 68.733 88.317 C 67.044 87.962 63.589 88.883 60.784 89.091 C 41.323 90.532 47.528 86.352 34.313 83.71 C 28.723 82.59 23.024 84.38 17.948 86.625 C 12.682 88.957 7.352 89.611 1.559 89.902 C 1.989 97.137 -0.607 102.873 3.634 109.596 C 6.268 113.767 6.843 112.772 10.815 111.13 C 27.382 104.287 41.05 119.084 56.901 119.989 C 65.307 120.471 84.29 105.574 89.095 101.971 C 90.919 100.603 92.598 98.511 93.954 96.695 C 95.194 95.035 98.487 90.324 95.833 88.502 Z " fill="none" vector-effect="non-scaling-stroke" stroke-width="3" stroke="rgb(254,254,254)" stroke-linejoin="miter" stroke-linecap="butt" stroke-miterlimit="10"/><path d=" M 95.833 88.502 C 95.38 88.192 94.866 88.041 94.319 87.999 C 93.36 87.922 92.305 88.18 91.323 88.509 C 90.598 88.75 89.913 89.027 89.333 89.234 C 88.704 89.461 87.968 89.829 87.157 90.295 C 83.272 92.51 77.514 97.05 71.874 100.359 C 68.85 102.134 65.538 104.285 62.001 104.754 C 57.96 105.289 53.532 103.593 49.585 102.881 C 48.803 102.74 42.327 101.068 42.001 101.496 C 43.249 99.862 45.163 100.098 47.012 100.269 C 50.612 100.601 53.669 100.482 57.292 100.478 C 61.065 100.475 77.501 97.375 72.735 90.49 C 72.065 89.522 70.778 88.744 68.733 88.317 C 67.044 87.962 63.589 88.883 60.784 89.091 C 41.323 90.532 47.528 86.352 34.313 83.71 C 28.723 82.59 23.024 84.38 17.948 86.625 C 12.682 88.957 7.352 89.611 1.559 89.902 C 1.989 97.137 -0.607 102.873 3.634 109.596 C 6.268 113.767 6.843 112.772 10.815 111.13 C 27.382 104.287 41.05 119.084 56.901 119.989 C 65.307 120.471 84.29 105.574 89.095 101.971 C 90.919 100.603 92.598 98.511 93.954 96.695 C 95.194 95.035 98.487 90.324 95.833 88.502 Z " fill="rgb(119,120,123)"/></g></g></svg>