<?xml version="1.0" encoding="UTF-8" standalone="no"?>
<!-- Generator: Gravit.io -->
<svg xmlns="http://www.w3.org/2000/svg" xmlns:xlink="http://www.w3.org/1999/xlink" style="isolation:isolate" viewBox="0 0 90 105" width="90pt" height="105pt"><defs><clipPath id="_clipPath_X82uLM2aWUae7MbaoLXiT33CMCwDegdm"><rect width="90" height="105"/></clipPath></defs><g clip-path="url(#_clipPath_X82uLM2aWUae7MbaoLXiT33CMCwDegdm)"><g><path d=" M 88.779 37.488 C 88.78 37.533 88.781 37.578 88.782 37.623 C 77.461 54.222 57.385 77.806 27.344 96.529 C 32.563 99.856 38.306 102.476 44.442 104.275 C 63.186 98.781 78.426 85.855 85.561 67.51 C 89.202 58.152 89.006 47.621 88.779 37.488 Z " fill="rgb(119,120,123)"/><path d=" M 88.673 6.787 C 88.673 6.787 86.811 6.23 83.276 5.5 C 79.316 12.222 73.549 21.255 66.668 30.603 C 48.647 55.093 29.962 72.163 11.044 81.453 C 13.675 84.997 16.667 88.222 19.983 91.09 C 58.159 68.382 79.666 37.508 88.674 22.084 C 88.686 16.985 88.702 11.886 88.673 6.787 Z " fill="rgb(115,193,235)"/><path d=" M 6.521 74.394 C 6.522 74.397 6.524 74.399 6.526 74.402 C 6.524 74.399 6.523 74.396 6.522 74.393 L 6.521 74.394 Z " fill="rgb(119,120,123)"/><path d=" M 66.668 30.603 C 73.661 21.104 79.239 12.236 83.204 5.481 C 83.061 5.452 82.907 5.421 82.758 5.392 C 82.596 5.359 82.438 5.326 82.269 5.293 C 82.118 5.263 81.957 5.233 81.801 5.202 C 81.615 5.167 81.428 5.13 81.235 5.094 C 81.063 5.061 80.885 5.028 80.707 4.996 C 80.521 4.961 80.332 4.927 80.139 4.892 C 79.944 4.856 79.745 4.821 79.542 4.786 C 79.362 4.754 79.176 4.722 78.991 4.69 C 78.764 4.651 78.537 4.612 78.304 4.574 C 78.137 4.546 77.963 4.517 77.792 4.49 C 77.536 4.448 77.28 4.406 77.015 4.364 C 76.875 4.342 76.728 4.319 76.585 4.297 C 75.875 4.188 75.143 4.077 74.374 3.969 C 62.184 24.16 37.447 59.591 6.521 74.394 C 6.522 74.397 6.524 74.399 6.526 74.402 C 6.928 75.142 7.351 75.865 7.782 76.584 C 8.052 77.031 8.323 77.478 8.604 77.917 C 8.727 78.111 8.858 78.299 8.983 78.492 C 9.644 79.499 10.327 80.487 11.042 81.449 C 11.042 81.45 11.044 81.451 11.044 81.453 C 29.962 72.163 48.647 55.093 66.668 30.603 Z " fill="rgb(254,254,254)"/><path d=" M 88.782 37.623 C 88.781 37.578 88.78 37.533 88.779 37.488 C 88.756 36.47 88.735 35.457 88.715 34.448 C 88.709 34.156 88.704 33.865 88.7 33.573 C 88.68 32.453 88.664 31.337 88.662 30.234 C 88.657 27.517 88.666 24.801 88.674 22.084 C 79.666 37.508 58.159 68.382 19.983 91.09 C 20.556 91.585 21.139 92.069 21.73 92.543 C 22.211 92.927 22.7 93.301 23.192 93.672 C 23.421 93.843 23.651 94.012 23.882 94.181 C 24.962 94.971 26.065 95.734 27.198 96.458 C 57.634 77.664 77.372 54.353 88.782 37.623 Z " fill="rgb(254,254,254)"/><path d=" M 24.015 46.163 L 12.788 34.936 L 18.675 29.048 L 24.015 34.389 L 40.218 18.185 L 46.106 24.072 L 24.015 46.163 Z  M 44.442 2 C 16.661 2 0.212 6.787 0.212 6.787 C 0.167 14.602 0.237 22.418 0.222 30.234 C 0.196 42.463 -1.195 55.891 3.324 67.51 C 4.254 69.9 5.327 72.192 6.522 74.393 C 37.246 59.687 62.083 24.229 74.36 3.969 C 67.006 2.93 56.953 2 44.442 2 Z " fill="rgb(119,120,123)"/></g></g></svg>