<?xml version="1.0" encoding="UTF-8" standalone="no"?>
<!-- Generator: Gravit.io -->
<svg xmlns="http://www.w3.org/2000/svg" xmlns:xlink="http://www.w3.org/1999/xlink" style="isolation:isolate" viewBox="0 0 150 50" width="150pt" height="50pt"><defs><clipPath id="_clipPath_LN5o4IUEg7Tyz1DJOEpSlly7z8W4g5pb"><rect width="150" height="50"/></clipPath></defs><g clip-path="url(#_clipPath_LN5o4IUEg7Tyz1DJOEpSlly7z8W4g5pb)"><g><clipPath id="_clipPath_uVIhwGfkk4yBjNNlKIwbFN4OAwummBHN"><path d=" M 0 8.5 L 0 41.5 L 32.783 41.5 L 32.783 8.5 L 0 8.5 Z " fill="rgb(255,255,255)"/></clipPath><g clip-path="url(#_clipPath_uVIhwGfkk4yBjNNlKIwbFN4OAwummBHN)"><path d=" M 10.08 29.99 C 9.721 30.599 9.461 30.923 9.055 31.498 C 9.053 31.501 9.051 31.504 9.049 31.507 C 8.797 31.845 8.858 32.221 9.084 32.512 C 9.177 32.633 9.298 32.738 9.434 32.821 C 9.569 32.903 9.72 32.963 9.878 32.992 C 10.239 33.059 10.64 32.963 10.962 32.602 L 11.576 31.702 L 11.963 31.144 C 11.99 31.105 12.019 31.068 12.05 31.033 C 12.306 30.608 12.239 30.231 12.013 29.956 C 11.912 29.833 11.78 29.729 11.632 29.65 C 11.483 29.57 11.317 29.515 11.151 29.49 C 10.77 29.431 10.381 29.534 10.171 29.861 L 10.171 29.861 L 10.167 29.866 L 10.08 29.99 L 10.08 29.99 Z  M 7.226 29.291 C 7.442 28.887 7.374 28.533 7.162 28.274 C 7.067 28.158 6.945 28.06 6.806 27.985 C 6.666 27.908 6.51 27.854 6.352 27.827 C 5.96 27.759 5.549 27.858 5.314 28.189 L 4.917 28.796 C 4.661 29.157 4.763 29.568 5.033 29.875 C 5.134 29.99 5.258 30.09 5.395 30.169 C 5.53 30.245 5.676 30.3 5.824 30.325 C 6.173 30.384 6.547 30.276 6.824 29.899 L 7.226 29.291 L 7.226 29.291 Z  M 13.767 32.896 L 13.772 32.89 L 13.893 32.722 C 14.249 32.231 14.191 31.8 13.94 31.498 C 13.844 31.382 13.72 31.285 13.58 31.209 C 13.44 31.133 13.283 31.08 13.124 31.053 C 12.779 30.995 12.42 31.068 12.184 31.319 C 12.157 31.361 12.127 31.405 12.095 31.448 L 12.095 31.448 L 11.358 32.545 C 11.123 32.884 11.212 33.247 11.459 33.52 C 11.558 33.63 11.682 33.726 11.82 33.799 C 11.957 33.873 12.108 33.925 12.265 33.951 C 12.651 34.013 13.067 33.898 13.36 33.5 C 13.362 33.497 13.364 33.494 13.366 33.491 L 13.767 32.896 L 13.767 32.896 Z  M 27.003 28.673 C 25.715 27.748 23.567 26.196 22.394 25.271 C 22.868 25.333 22.836 25.36 23.377 25.342 C 23.516 25.337 23.631 25.245 23.634 25.135 C 23.637 25.026 23.526 24.941 23.387 24.945 C 21.216 25.016 18.312 23.587 17.025 21.786 C 16.967 21.706 16.846 21.674 16.735 21.704 L 15.037 22.103 C 14.55 22.633 13.824 23.472 13.107 23.79 C 12.451 24.264 9.765 24.622 10.813 23.363 C 11.251 22.836 11.653 22.282 12.019 21.701 C 13.799 18.883 13.471 19.461 16.801 18.316 C 17.435 18.159 19.472 18.537 21.377 18.891 C 23.034 19.199 24.87 19.709 26.523 19.812 L 29.701 27.302 L 27.003 28.673 L 27.003 28.673 Z  M 16.392 8.5 C 22.715 8.5 28.207 12.059 30.977 17.282 L 26.684 18.941 L 30.395 27.549 L 32.783 26.891 C 31.845 35.112 24.863 41.5 16.392 41.5 C 7.92 41.5 0.939 35.112 0 26.891 L 2.389 27.549 L 6.099 18.941 L 1.806 17.282 C 4.576 12.059 10.069 8.5 16.392 8.5 L 16.392 8.5 Z  M 24.327 30.519 C 22.796 29.439 20.652 27.912 19.336 26.978 C 19.236 26.907 19.076 26.917 18.98 27.001 C 18.883 27.085 18.886 27.211 18.987 27.282 C 18.995 27.287 19.003 27.293 19.011 27.299 C 20.482 28.366 22.627 29.905 24.202 31.04 C 24.583 31.315 24.539 31.622 24.346 31.896 C 23.516 33.078 22.218 32.89 21.171 32.103 C 20.054 31.124 18.88 30.386 17.698 29.503 C 17.6 29.429 17.44 29.436 17.341 29.518 C 17.243 29.6 17.242 29.726 17.34 29.799 C 18.616 30.757 19.934 31.723 21.213 32.682 C 21.515 32.907 21.577 33.188 21.301 33.512 C 20.845 34.046 19.583 34.41 18.506 33.593 C 17.576 32.888 16.647 32.183 15.717 31.478 C 15.62 31.404 15.46 31.41 15.361 31.491 C 15.261 31.573 15.26 31.699 15.357 31.773 L 17.692 33.544 C 18.611 34.389 16.841 35.263 15.518 34.499 C 14.957 34.16 14.41 33.833 13.877 33.518 L 14.127 33.147 L 14.249 32.979 C 14.648 32.428 14.727 31.76 14.278 31.218 C 14.143 31.055 13.974 30.923 13.789 30.823 C 13.605 30.723 13.403 30.654 13.197 30.62 C 13.013 30.589 12.826 30.587 12.646 30.615 C 12.677 30.288 12.585 29.961 12.352 29.677 C 12.212 29.506 12.034 29.367 11.839 29.263 C 11.646 29.16 11.433 29.089 11.217 29.056 C 10.936 29.013 10.651 29.037 10.399 29.136 C 10.362 28.924 10.27 28.72 10.117 28.533 C 9.976 28.362 9.798 28.223 9.604 28.119 C 9.411 28.016 9.198 27.945 8.982 27.912 C 8.504 27.839 8.017 27.959 7.695 28.312 C 7.648 28.202 7.584 28.096 7.502 27.996 C 7.369 27.833 7.201 27.7 7.017 27.599 C 6.834 27.499 6.632 27.43 6.426 27.394 C 5.87 27.299 5.292 27.461 4.956 27.935 L 4.951 27.942 L 4.729 28.281 C 4.131 27.935 3.582 27.61 3.082 27.302 C 4.142 24.805 5.201 22.308 6.261 19.812 C 6.688 19.785 7.114 19.758 7.541 19.732 C 8.659 19.351 9.777 18.971 10.895 18.59 C 12.141 18.167 13.652 18.287 15.079 18.413 C 14.953 18.453 14.828 18.494 14.702 18.535 C 14.288 18.67 13.871 18.819 13.509 19.067 C 13.168 19.3 12.905 19.601 12.661 19.931 C 12.3 20.419 11.972 20.954 11.648 21.467 C 11.293 22.03 10.901 22.57 10.475 23.082 C 10.223 23.385 10.011 23.792 10.214 24.18 C 10.523 24.772 11.506 24.695 12.055 24.603 C 12.447 24.538 12.983 24.401 13.324 24.174 C 14.059 23.833 14.718 23.102 15.269 22.499 L 16.749 22.152 C 17.788 23.528 19.692 24.686 21.543 25.159 L 22.123 25.615 C 23.702 26.86 25.344 28.048 26.978 29.222 C 28.37 30.025 26.154 31.809 24.327 30.519 L 24.327 30.519 Z  M 8.916 28.346 C 8.535 28.288 8.145 28.389 7.936 28.717 L 7.936 28.717 L 7.932 28.722 C 7.495 29.345 7.263 29.735 6.82 30.353 C 6.818 30.356 6.816 30.36 6.814 30.362 C 6.561 30.7 6.623 31.077 6.849 31.368 C 6.942 31.488 7.062 31.594 7.199 31.677 C 7.334 31.759 7.485 31.819 7.643 31.848 C 8.005 31.915 8.405 31.819 8.727 31.458 L 9.442 30.417 L 9.825 29.872 C 10.069 29.454 10.001 29.083 9.778 28.812 C 9.677 28.689 9.545 28.585 9.397 28.505 C 9.248 28.426 9.082 28.371 8.916 28.346 L 8.916 28.346 Z " fill-rule="evenodd" fill="rgb(0,169,225)"/></g></g><g clip-path="url(#_clipPath_nMXtrCoJ0zTK0S9cF5nh67aFHWqzBlmv)"><text transform="matrix(1,0,0,1,32.783,23.975)" style="font-family:'Open Sans';font-weight:800;font-size:20px;font-style:normal;fill:#001f54;stroke:none;">NUNNALLY</text></g><defs><clipPath id="_clipPath_nMXtrCoJ0zTK0S9cF5nh67aFHWqzBlmv"><rect x="0" y="0" width="117.217" height="27.236" transform="matrix(1,0,0,1,32.783,2.598)"/></clipPath></defs><g clip-path="url(#_clipPath_bcCClvEPjXrrtC8E83LUxr0vverDW7W9)"><text transform="matrix(1,0,0,1,32.783,41.543)" style="font-family:'Open Sans';font-weight:400;font-size:20px;font-style:normal;letter-spacing:-0.5;fill:#034078;stroke:none;">International</text></g><defs><clipPath id="_clipPath_bcCClvEPjXrrtC8E83LUxr0vverDW7W9"><rect x="0" y="0" width="117.217" height="27.236" transform="matrix(1,0,0,1,32.783,20.166)"/></clipPath></defs></g></svg>